<mxfile host="Electron" agent="Mozilla/5.0 (Windows NT 10.0; Win64; x64) AppleWebKit/537.36 (KHTML, like Gecko) draw.io/26.2.15 Chrome/134.0.6998.205 Electron/35.2.1 Safari/537.36" version="26.2.15">
  <diagram name="Page-1" id="LGPMgBIfTs9LsEEEOlJE">
    <mxGraphModel dx="1678" dy="989" grid="1" gridSize="10" guides="1" tooltips="1" connect="1" arrows="1" fold="1" page="1" pageScale="1" pageWidth="1169" pageHeight="827" math="0" shadow="0">
      <root>
        <mxCell id="0" />
        <mxCell id="1" parent="0" />
        <mxCell id="0NhfyobeQGz_dx_P05Bh-1" value="" style="rounded=0;whiteSpace=wrap;html=1;" parent="1" vertex="1">
          <mxGeometry x="420" y="240" width="410" height="60" as="geometry" />
        </mxCell>
        <mxCell id="0NhfyobeQGz_dx_P05Bh-2" value="" style="rounded=0;whiteSpace=wrap;html=1;fillColor=#FFF2CC;strokeColor=#000000;" parent="1" vertex="1">
          <mxGeometry x="780" y="250" width="40" height="40" as="geometry" />
        </mxCell>
        <mxCell id="0NhfyobeQGz_dx_P05Bh-3" value="" style="rounded=0;whiteSpace=wrap;html=1;fillColor=#FFF2CC;strokeColor=#000000;" parent="1" vertex="1">
          <mxGeometry x="680" y="250" width="40" height="40" as="geometry" />
        </mxCell>
        <mxCell id="0NhfyobeQGz_dx_P05Bh-4" value="" style="rounded=0;whiteSpace=wrap;html=1;fillColor=#FFF2CC;strokeColor=#000000;" parent="1" vertex="1">
          <mxGeometry x="730" y="250" width="40" height="40" as="geometry" />
        </mxCell>
        <mxCell id="0NhfyobeQGz_dx_P05Bh-6" value="" style="rounded=0;whiteSpace=wrap;html=1;fillColor=#C3ABD0;strokeColor=#000000;" parent="1" vertex="1">
          <mxGeometry x="630" y="250" width="40" height="40" as="geometry" />
        </mxCell>
        <mxCell id="0NhfyobeQGz_dx_P05Bh-10" value="" style="endArrow=classic;html=1;rounded=0;entryX=0.25;entryY=0;entryDx=0;entryDy=0;fillColor=#f8cecc;strokeColor=#FF6666;exitX=0.335;exitY=1.006;exitDx=0;exitDy=0;exitPerimeter=0;" parent="1" source="0NhfyobeQGz_dx_P05Bh-37" edge="1">
          <mxGeometry width="50" height="50" relative="1" as="geometry">
            <mxPoint x="500" y="190" as="sourcePoint" />
            <mxPoint x="439.9999999999998" y="250" as="targetPoint" />
          </mxGeometry>
        </mxCell>
        <mxCell id="0NhfyobeQGz_dx_P05Bh-11" value="" style="endArrow=classic;html=1;rounded=0;entryX=0.5;entryY=0;entryDx=0;entryDy=0;fillColor=#f8cecc;strokeColor=#FF6666;exitX=0.442;exitY=1.019;exitDx=0;exitDy=0;exitPerimeter=0;" parent="1" source="0NhfyobeQGz_dx_P05Bh-37" target="0NhfyobeQGz_dx_P05Bh-32" edge="1">
          <mxGeometry width="50" height="50" relative="1" as="geometry">
            <mxPoint x="520" y="190" as="sourcePoint" />
            <mxPoint x="489.9999999999998" y="250" as="targetPoint" />
          </mxGeometry>
        </mxCell>
        <mxCell id="0NhfyobeQGz_dx_P05Bh-12" value="" style="endArrow=classic;html=1;rounded=0;entryX=0.5;entryY=0;entryDx=0;entryDy=0;fillColor=#f8cecc;strokeColor=#FF6666;exitX=0.531;exitY=1.019;exitDx=0;exitDy=0;exitPerimeter=0;" parent="1" source="0NhfyobeQGz_dx_P05Bh-37" target="0NhfyobeQGz_dx_P05Bh-33" edge="1">
          <mxGeometry width="50" height="50" relative="1" as="geometry">
            <mxPoint x="540" y="190" as="sourcePoint" />
            <mxPoint x="540" y="250" as="targetPoint" />
          </mxGeometry>
        </mxCell>
        <mxCell id="0NhfyobeQGz_dx_P05Bh-13" value="již zpracované bajty" style="text;html=1;align=center;verticalAlign=middle;whiteSpace=wrap;rounded=0;" parent="1" vertex="1">
          <mxGeometry x="330" y="140" width="130" height="30" as="geometry" />
        </mxCell>
        <mxCell id="0NhfyobeQGz_dx_P05Bh-17" value="" style="endArrow=classic;html=1;rounded=0;exitX=0.234;exitY=0.976;exitDx=0;exitDy=0;entryX=0.5;entryY=0;entryDx=0;entryDy=0;fillColor=#fff2cc;strokeColor=#d6b656;exitPerimeter=0;" parent="1" source="0NhfyobeQGz_dx_P05Bh-20" target="0NhfyobeQGz_dx_P05Bh-3" edge="1">
          <mxGeometry width="50" height="50" relative="1" as="geometry">
            <mxPoint x="701.42" y="191.38" as="sourcePoint" />
            <mxPoint x="720" y="300" as="targetPoint" />
          </mxGeometry>
        </mxCell>
        <mxCell id="0NhfyobeQGz_dx_P05Bh-18" value="" style="endArrow=classic;html=1;rounded=0;exitX=0.354;exitY=1.012;exitDx=0;exitDy=0;entryX=0.5;entryY=0;entryDx=0;entryDy=0;fillColor=#fff2cc;strokeColor=#d6b656;exitPerimeter=0;" parent="1" source="0NhfyobeQGz_dx_P05Bh-20" target="0NhfyobeQGz_dx_P05Bh-4" edge="1">
          <mxGeometry width="50" height="50" relative="1" as="geometry">
            <mxPoint x="725" y="190" as="sourcePoint" />
            <mxPoint x="710" y="260" as="targetPoint" />
          </mxGeometry>
        </mxCell>
        <mxCell id="0NhfyobeQGz_dx_P05Bh-19" value="" style="endArrow=classic;html=1;rounded=0;exitX=0.47;exitY=1.042;exitDx=0;exitDy=0;entryX=0.5;entryY=0;entryDx=0;entryDy=0;fillColor=#fff2cc;strokeColor=#d6b656;exitPerimeter=0;" parent="1" source="0NhfyobeQGz_dx_P05Bh-20" target="0NhfyobeQGz_dx_P05Bh-2" edge="1">
          <mxGeometry width="50" height="50" relative="1" as="geometry">
            <mxPoint x="770" y="190" as="sourcePoint" />
            <mxPoint x="760" y="260" as="targetPoint" />
          </mxGeometry>
        </mxCell>
        <mxCell id="0NhfyobeQGz_dx_P05Bh-20" value="bajty připravené na zpracování" style="rounded=0;whiteSpace=wrap;html=1;strokeColor=#D6B656;" parent="1" vertex="1">
          <mxGeometry x="680" y="160" width="170" height="30" as="geometry" />
        </mxCell>
        <mxCell id="0NhfyobeQGz_dx_P05Bh-21" value="&lt;font style=&quot;font-size: 13px;&quot;&gt;&lt;b&gt;vyrovávací paměť 1.&lt;/b&gt;&lt;/font&gt;" style="text;html=1;align=left;verticalAlign=middle;whiteSpace=wrap;rounded=0;" parent="1" vertex="1">
          <mxGeometry x="840" y="255" width="200" height="30" as="geometry" />
        </mxCell>
        <mxCell id="0NhfyobeQGz_dx_P05Bh-22" value="" style="rounded=0;whiteSpace=wrap;html=1;fillColor=#f5f5f5;fontColor=#333333;strokeColor=#666666;" parent="1" vertex="1">
          <mxGeometry x="40" y="230" width="230" height="60" as="geometry" />
        </mxCell>
        <mxCell id="0NhfyobeQGz_dx_P05Bh-23" value="ukazatel na aktuálně zpracovávanou vyrovnávací paměť" style="text;html=1;align=center;verticalAlign=middle;whiteSpace=wrap;rounded=0;" parent="1" vertex="1">
          <mxGeometry x="50" y="230" width="160" height="60" as="geometry" />
        </mxCell>
        <mxCell id="0NhfyobeQGz_dx_P05Bh-24" value="" style="rounded=0;whiteSpace=wrap;html=1;fillColor=#f8cecc;strokeColor=#b85450;" parent="1" vertex="1">
          <mxGeometry x="220" y="240" width="40" height="40" as="geometry" />
        </mxCell>
        <mxCell id="0NhfyobeQGz_dx_P05Bh-25" value="" style="ellipse;whiteSpace=wrap;html=1;aspect=fixed;fillColor=#000000;" parent="1" vertex="1">
          <mxGeometry x="235" y="255" width="10" height="10" as="geometry" />
        </mxCell>
        <mxCell id="0NhfyobeQGz_dx_P05Bh-26" value="" style="endArrow=classic;html=1;rounded=0;exitX=1;exitY=0.5;exitDx=0;exitDy=0;entryX=0;entryY=0.5;entryDx=0;entryDy=0;" parent="1" source="0NhfyobeQGz_dx_P05Bh-25" target="0NhfyobeQGz_dx_P05Bh-1" edge="1">
          <mxGeometry width="50" height="50" relative="1" as="geometry">
            <mxPoint x="190" y="290" as="sourcePoint" />
            <mxPoint x="380" y="250" as="targetPoint" />
          </mxGeometry>
        </mxCell>
        <mxCell id="0NhfyobeQGz_dx_P05Bh-27" value="" style="shape=flexArrow;endArrow=classic;html=1;rounded=0;" parent="1" edge="1">
          <mxGeometry width="50" height="50" relative="1" as="geometry">
            <mxPoint x="624.66" y="310" as="sourcePoint" />
            <mxPoint x="624.66" y="360" as="targetPoint" />
          </mxGeometry>
        </mxCell>
        <mxCell id="0NhfyobeQGz_dx_P05Bh-28" value="" style="rounded=0;whiteSpace=wrap;html=1;fillColor=#C3ABD0;strokeColor=#000000;" parent="1" vertex="1">
          <mxGeometry x="430" y="250" width="40" height="40" as="geometry" />
        </mxCell>
        <mxCell id="0NhfyobeQGz_dx_P05Bh-32" value="" style="rounded=0;whiteSpace=wrap;html=1;fillColor=#C3ABD0;strokeColor=#000000;" parent="1" vertex="1">
          <mxGeometry x="480" y="250" width="40" height="40" as="geometry" />
        </mxCell>
        <mxCell id="0NhfyobeQGz_dx_P05Bh-33" value="" style="rounded=0;whiteSpace=wrap;html=1;fillColor=#C3ABD0;strokeColor=#000000;" parent="1" vertex="1">
          <mxGeometry x="530" y="250" width="40" height="40" as="geometry" />
        </mxCell>
        <mxCell id="0NhfyobeQGz_dx_P05Bh-34" value="" style="rounded=0;whiteSpace=wrap;html=1;fillColor=#C3ABD0;strokeColor=#000000;" parent="1" vertex="1">
          <mxGeometry x="580" y="250" width="40" height="40" as="geometry" />
        </mxCell>
        <mxCell id="0NhfyobeQGz_dx_P05Bh-35" value="" style="endArrow=classic;html=1;rounded=0;entryX=0.5;entryY=0;entryDx=0;entryDy=0;fillColor=#f8cecc;strokeColor=#FF6666;exitX=0.588;exitY=0.994;exitDx=0;exitDy=0;exitPerimeter=0;" parent="1" source="0NhfyobeQGz_dx_P05Bh-37" target="0NhfyobeQGz_dx_P05Bh-34" edge="1">
          <mxGeometry width="50" height="50" relative="1" as="geometry">
            <mxPoint x="560" y="190" as="sourcePoint" />
            <mxPoint x="600" y="250" as="targetPoint" />
          </mxGeometry>
        </mxCell>
        <mxCell id="0NhfyobeQGz_dx_P05Bh-36" value="" style="endArrow=classic;html=1;rounded=0;entryX=0.5;entryY=0;entryDx=0;entryDy=0;fillColor=#f8cecc;strokeColor=#FF6666;exitX=0.706;exitY=1.006;exitDx=0;exitDy=0;exitPerimeter=0;" parent="1" source="0NhfyobeQGz_dx_P05Bh-37" target="0NhfyobeQGz_dx_P05Bh-6" edge="1">
          <mxGeometry width="50" height="50" relative="1" as="geometry">
            <mxPoint x="580" y="190" as="sourcePoint" />
            <mxPoint x="660" y="230" as="targetPoint" />
          </mxGeometry>
        </mxCell>
        <mxCell id="0NhfyobeQGz_dx_P05Bh-37" value="bajty připravené na zpracování" style="rounded=0;whiteSpace=wrap;html=1;strokeColor=#D6B656;" parent="1" vertex="1">
          <mxGeometry x="460" y="160" width="170" height="30" as="geometry" />
        </mxCell>
        <mxCell id="0NhfyobeQGz_dx_P05Bh-38" value="" style="rounded=0;whiteSpace=wrap;html=1;fillColor=#CCCCCC;strokeWidth=2;" parent="1" vertex="1">
          <mxGeometry x="318.55" y="494" width="510" height="310" as="geometry" />
        </mxCell>
        <mxCell id="0NhfyobeQGz_dx_P05Bh-39" value="" style="rounded=0;whiteSpace=wrap;html=1;fillColor=#d5e8d4;strokeColor=#000000;" parent="1" vertex="1">
          <mxGeometry x="328.55" y="504" width="90" height="40" as="geometry" />
        </mxCell>
        <mxCell id="0NhfyobeQGz_dx_P05Bh-40" value="" style="rounded=0;whiteSpace=wrap;html=1;fillColor=#d5e8d4;strokeColor=#000000;" parent="1" vertex="1">
          <mxGeometry x="428.55" y="504" width="90" height="40" as="geometry" />
        </mxCell>
        <mxCell id="0NhfyobeQGz_dx_P05Bh-42" value="" style="rounded=0;whiteSpace=wrap;html=1;fillColor=#E6E6E6;" parent="1" vertex="1">
          <mxGeometry x="328.55" y="554" width="90" height="40" as="geometry" />
        </mxCell>
        <mxCell id="0NhfyobeQGz_dx_P05Bh-46" value="" style="rounded=0;whiteSpace=wrap;html=1;dashed=1;fillColor=#E6E6E6;" parent="1" vertex="1">
          <mxGeometry x="428.55" y="604" width="90" height="40" as="geometry" />
        </mxCell>
        <mxCell id="0NhfyobeQGz_dx_P05Bh-47" value="" style="rounded=0;whiteSpace=wrap;html=1;dashed=1;fillColor=#E6E6E6;" parent="1" vertex="1">
          <mxGeometry x="328.55" y="604" width="90" height="40" as="geometry" />
        </mxCell>
        <mxCell id="0NhfyobeQGz_dx_P05Bh-53" value="" style="rounded=0;whiteSpace=wrap;html=1;dashed=1;dashPattern=1 4;fillColor=#E6E6E6;" parent="1" vertex="1">
          <mxGeometry x="428.55" y="654" width="90" height="40" as="geometry" />
        </mxCell>
        <mxCell id="0NhfyobeQGz_dx_P05Bh-55" value="" style="rounded=0;whiteSpace=wrap;html=1;dashed=1;dashPattern=1 4;fillColor=#E6E6E6;" parent="1" vertex="1">
          <mxGeometry x="328.55" y="654" width="90" height="40" as="geometry" />
        </mxCell>
        <mxCell id="0NhfyobeQGz_dx_P05Bh-56" value="" style="rounded=0;whiteSpace=wrap;html=1;dashed=1;dashPattern=1 4;fillColor=#E6E6E6;" parent="1" vertex="1">
          <mxGeometry x="528.55" y="654" width="90" height="40" as="geometry" />
        </mxCell>
        <mxCell id="0NhfyobeQGz_dx_P05Bh-57" value="BLOK" style="text;html=1;align=center;verticalAlign=middle;whiteSpace=wrap;rounded=0;" parent="1" vertex="1">
          <mxGeometry x="343.55" y="509" width="60" height="30" as="geometry" />
        </mxCell>
        <mxCell id="0NhfyobeQGz_dx_P05Bh-58" value="BLOK" style="text;html=1;align=center;verticalAlign=middle;whiteSpace=wrap;rounded=0;" parent="1" vertex="1">
          <mxGeometry x="443.55" y="509" width="60" height="30" as="geometry" />
        </mxCell>
        <mxCell id="0NhfyobeQGz_dx_P05Bh-60" value="BLOK" style="text;html=1;align=center;verticalAlign=middle;whiteSpace=wrap;rounded=0;" parent="1" vertex="1">
          <mxGeometry x="343.55" y="559" width="60" height="30" as="geometry" />
        </mxCell>
        <mxCell id="0NhfyobeQGz_dx_P05Bh-64" value="BLOK" style="text;html=1;align=center;verticalAlign=middle;whiteSpace=wrap;rounded=0;" parent="1" vertex="1">
          <mxGeometry x="443.55" y="609" width="60" height="30" as="geometry" />
        </mxCell>
        <mxCell id="0NhfyobeQGz_dx_P05Bh-65" value="BLOK" style="text;html=1;align=center;verticalAlign=middle;whiteSpace=wrap;rounded=0;" parent="1" vertex="1">
          <mxGeometry x="343.55" y="609" width="60" height="30" as="geometry" />
        </mxCell>
        <mxCell id="0NhfyobeQGz_dx_P05Bh-66" value="BLOK" style="text;html=1;align=center;verticalAlign=middle;whiteSpace=wrap;rounded=0;" parent="1" vertex="1">
          <mxGeometry x="343.55" y="659" width="60" height="30" as="geometry" />
        </mxCell>
        <mxCell id="0NhfyobeQGz_dx_P05Bh-67" value="BLOK" style="text;html=1;align=center;verticalAlign=middle;whiteSpace=wrap;rounded=0;" parent="1" vertex="1">
          <mxGeometry x="443.55" y="659" width="60" height="30" as="geometry" />
        </mxCell>
        <mxCell id="0NhfyobeQGz_dx_P05Bh-68" value="BLOK" style="text;html=1;align=center;verticalAlign=middle;whiteSpace=wrap;rounded=0;" parent="1" vertex="1">
          <mxGeometry x="543.55" y="659" width="60" height="30" as="geometry" />
        </mxCell>
        <mxCell id="0NhfyobeQGz_dx_P05Bh-69" value="" style="group" parent="1" vertex="1" connectable="0">
          <mxGeometry x="528.55" y="604" width="90" height="40" as="geometry" />
        </mxCell>
        <mxCell id="0NhfyobeQGz_dx_P05Bh-45" value="" style="rounded=0;whiteSpace=wrap;html=1;dashed=1;fillColor=#E6E6E6;" parent="0NhfyobeQGz_dx_P05Bh-69" vertex="1">
          <mxGeometry width="90" height="40" as="geometry" />
        </mxCell>
        <mxCell id="0NhfyobeQGz_dx_P05Bh-63" value="BLOK" style="text;html=1;align=center;verticalAlign=middle;whiteSpace=wrap;rounded=0;" parent="0NhfyobeQGz_dx_P05Bh-69" vertex="1">
          <mxGeometry x="15" y="5" width="60" height="30" as="geometry" />
        </mxCell>
        <mxCell id="0NhfyobeQGz_dx_P05Bh-70" value="" style="group" parent="1" vertex="1" connectable="0">
          <mxGeometry x="528.55" y="554" width="90" height="40" as="geometry" />
        </mxCell>
        <mxCell id="0NhfyobeQGz_dx_P05Bh-71" value="" style="rounded=0;whiteSpace=wrap;html=1;dashed=1;fillColor=#E6E6E6;" parent="0NhfyobeQGz_dx_P05Bh-70" vertex="1">
          <mxGeometry width="90" height="40" as="geometry" />
        </mxCell>
        <mxCell id="0NhfyobeQGz_dx_P05Bh-72" value="BLOK" style="text;html=1;align=center;verticalAlign=middle;whiteSpace=wrap;rounded=0;" parent="0NhfyobeQGz_dx_P05Bh-70" vertex="1">
          <mxGeometry x="15" y="5" width="60" height="30" as="geometry" />
        </mxCell>
        <mxCell id="0NhfyobeQGz_dx_P05Bh-73" value="" style="group" parent="1" vertex="1" connectable="0">
          <mxGeometry x="528.55" y="504" width="90" height="40" as="geometry" />
        </mxCell>
        <mxCell id="0NhfyobeQGz_dx_P05Bh-74" value="" style="rounded=0;whiteSpace=wrap;html=1;dashed=1;fillColor=#E6E6E6;" parent="0NhfyobeQGz_dx_P05Bh-73" vertex="1">
          <mxGeometry width="90" height="40" as="geometry" />
        </mxCell>
        <mxCell id="0NhfyobeQGz_dx_P05Bh-75" value="BLOK" style="text;html=1;align=center;verticalAlign=middle;whiteSpace=wrap;rounded=0;" parent="0NhfyobeQGz_dx_P05Bh-73" vertex="1">
          <mxGeometry x="15" y="5" width="60" height="30" as="geometry" />
        </mxCell>
        <mxCell id="0NhfyobeQGz_dx_P05Bh-77" value="" style="group" parent="1" vertex="1" connectable="0">
          <mxGeometry x="728.55" y="754" width="90" height="40" as="geometry" />
        </mxCell>
        <mxCell id="0NhfyobeQGz_dx_P05Bh-43" value="" style="rounded=0;whiteSpace=wrap;html=1;fillColor=#E6E6E6;" parent="0NhfyobeQGz_dx_P05Bh-77" vertex="1">
          <mxGeometry width="90" height="40" as="geometry" />
        </mxCell>
        <mxCell id="0NhfyobeQGz_dx_P05Bh-61" value="BLOK" style="text;html=1;align=center;verticalAlign=middle;whiteSpace=wrap;rounded=0;" parent="0NhfyobeQGz_dx_P05Bh-77" vertex="1">
          <mxGeometry x="15" y="5" width="60" height="30" as="geometry" />
        </mxCell>
        <mxCell id="0NhfyobeQGz_dx_P05Bh-78" value="" style="group" parent="1" vertex="1" connectable="0">
          <mxGeometry x="728.55" y="504" width="90" height="40" as="geometry" />
        </mxCell>
        <mxCell id="0NhfyobeQGz_dx_P05Bh-79" value="" style="rounded=0;whiteSpace=wrap;html=1;fillColor=#E6E6E6;" parent="0NhfyobeQGz_dx_P05Bh-78" vertex="1">
          <mxGeometry width="90" height="40" as="geometry" />
        </mxCell>
        <mxCell id="0NhfyobeQGz_dx_P05Bh-80" value="BLOK" style="text;html=1;align=center;verticalAlign=middle;whiteSpace=wrap;rounded=0;" parent="0NhfyobeQGz_dx_P05Bh-78" vertex="1">
          <mxGeometry x="15" y="5" width="60" height="30" as="geometry" />
        </mxCell>
        <mxCell id="0NhfyobeQGz_dx_P05Bh-81" value="" style="group" parent="1" vertex="1" connectable="0">
          <mxGeometry x="328.55" y="754" width="90" height="40" as="geometry" />
        </mxCell>
        <mxCell id="0NhfyobeQGz_dx_P05Bh-82" value="" style="rounded=0;whiteSpace=wrap;html=1;fillColor=#E6E6E6;" parent="0NhfyobeQGz_dx_P05Bh-81" vertex="1">
          <mxGeometry width="90" height="40" as="geometry" />
        </mxCell>
        <mxCell id="0NhfyobeQGz_dx_P05Bh-83" value="BLOK" style="text;html=1;align=center;verticalAlign=middle;whiteSpace=wrap;rounded=0;" parent="0NhfyobeQGz_dx_P05Bh-81" vertex="1">
          <mxGeometry x="15" y="5" width="60" height="30" as="geometry" />
        </mxCell>
        <mxCell id="0NhfyobeQGz_dx_P05Bh-85" value="" style="group" parent="1" vertex="1" connectable="0">
          <mxGeometry x="428.55" y="554" width="90" height="40" as="geometry" />
        </mxCell>
        <mxCell id="0NhfyobeQGz_dx_P05Bh-86" value="" style="rounded=0;whiteSpace=wrap;html=1;fillColor=#E6E6E6;" parent="0NhfyobeQGz_dx_P05Bh-85" vertex="1">
          <mxGeometry width="90" height="40" as="geometry" />
        </mxCell>
        <mxCell id="0NhfyobeQGz_dx_P05Bh-87" value="BLOK" style="text;html=1;align=center;verticalAlign=middle;whiteSpace=wrap;rounded=0;" parent="0NhfyobeQGz_dx_P05Bh-85" vertex="1">
          <mxGeometry x="15" y="5" width="60" height="30" as="geometry" />
        </mxCell>
        <mxCell id="0NhfyobeQGz_dx_P05Bh-89" value="&lt;font style=&quot;font-size: 14px;&quot;&gt;&lt;b&gt;. . .&lt;/b&gt;&lt;/font&gt;" style="text;html=1;align=center;verticalAlign=middle;whiteSpace=wrap;rounded=0;rotation=90;" parent="1" vertex="1">
          <mxGeometry x="318.55" y="714" width="62.5" height="20" as="geometry" />
        </mxCell>
        <mxCell id="0NhfyobeQGz_dx_P05Bh-90" value="&lt;font style=&quot;font-size: 14px;&quot;&gt;&lt;b&gt;.&amp;nbsp; .&amp;nbsp; .&amp;nbsp; .&amp;nbsp; .&amp;nbsp; .&amp;nbsp; .&amp;nbsp; .&lt;/b&gt;&lt;/font&gt;" style="text;html=1;align=center;verticalAlign=middle;whiteSpace=wrap;rounded=0;rotation=0;" parent="1" vertex="1">
          <mxGeometry x="618.55" y="509" width="110" height="20" as="geometry" />
        </mxCell>
        <mxCell id="0NhfyobeQGz_dx_P05Bh-91" value="&lt;span style=&quot;font-size: 14px;&quot;&gt;&lt;b&gt;.&amp;nbsp; .&amp;nbsp; .&amp;nbsp; .&amp;nbsp; .&amp;nbsp; .&amp;nbsp; .&amp;nbsp; .&amp;nbsp; .&amp;nbsp; .&amp;nbsp; .&amp;nbsp; .&amp;nbsp; .&amp;nbsp; .&amp;nbsp; .&amp;nbsp; .&amp;nbsp; .&lt;/b&gt;&lt;/span&gt;" style="text;html=1;align=center;verticalAlign=middle;whiteSpace=wrap;rounded=0;rotation=90;" parent="1" vertex="1">
          <mxGeometry x="665.67" y="640.32" width="215.78" height="20" as="geometry" />
        </mxCell>
        <mxCell id="0NhfyobeQGz_dx_P05Bh-92" value="&lt;span style=&quot;font-size: 14px;&quot;&gt;&lt;b&gt;.&amp;nbsp; .&amp;nbsp; .&amp;nbsp; .&amp;nbsp; .&amp;nbsp; .&amp;nbsp; .&amp;nbsp; .&amp;nbsp; .&amp;nbsp; .&amp;nbsp; .&amp;nbsp; .&amp;nbsp; .&amp;nbsp; .&amp;nbsp; .&amp;nbsp; .&amp;nbsp; .&amp;nbsp; .&amp;nbsp; .&amp;nbsp; .&amp;nbsp; .&amp;nbsp; .&amp;nbsp; .&amp;nbsp; .&amp;nbsp; .&lt;/b&gt;&lt;/span&gt;" style="text;html=1;align=center;verticalAlign=middle;whiteSpace=wrap;rounded=0;rotation=0;" parent="1" vertex="1">
          <mxGeometry x="418.55" y="764" width="310" height="20" as="geometry" />
        </mxCell>
        <mxCell id="0NhfyobeQGz_dx_P05Bh-93" value="" style="endArrow=classic;html=1;rounded=0;entryX=0.25;entryY=0;entryDx=0;entryDy=0;strokeColor=#FF6666;strokeWidth=3;" parent="1" edge="1">
          <mxGeometry width="50" height="50" relative="1" as="geometry">
            <mxPoint x="368.55" y="454" as="sourcePoint" />
            <mxPoint x="351.05" y="514" as="targetPoint" />
          </mxGeometry>
        </mxCell>
        <mxCell id="0NhfyobeQGz_dx_P05Bh-94" value="" style="endArrow=classic;html=1;rounded=0;entryX=0.25;entryY=0;entryDx=0;entryDy=0;strokeColor=#FF6666;strokeWidth=3;" parent="1" edge="1">
          <mxGeometry width="50" height="50" relative="1" as="geometry">
            <mxPoint x="378.55" y="454" as="sourcePoint" />
            <mxPoint x="443.55" y="514" as="targetPoint" />
          </mxGeometry>
        </mxCell>
        <mxCell id="0NhfyobeQGz_dx_P05Bh-95" value="&lt;font style=&quot;font-size: 15px;&quot;&gt;&lt;b&gt;zapsané bloky&lt;/b&gt;&lt;/font&gt;" style="rounded=0;whiteSpace=wrap;html=1;strokeColor=#FF6666;strokeWidth=3;" parent="1" vertex="1">
          <mxGeometry x="318.55" y="420" width="140" height="40" as="geometry" />
        </mxCell>
      </root>
    </mxGraphModel>
  </diagram>
</mxfile>
